<?xml version="1.0" encoding="utf-8"?>
<!-- Generator: Adobe Illustrator 21.0.0, SVG Export Plug-In . SVG Version: 6.00 Build 0)  -->
<svg version="1.1" id="Слой_1" xmlns="http://www.w3.org/2000/svg" xmlns:xlink="http://www.w3.org/1999/xlink" x="0px" y="0px"
	 viewBox="0 0 612 1008" style="enable-background:new 0 0 612 1008;" xml:space="preserve">
<style type="text/css">
	.st0{fill:#1D71B8;stroke:#000000;stroke-miterlimit:10;}
	.st1{fill:#47C1F1;stroke:#000000;stroke-miterlimit:10;}
	.st2{fill:#009FE3;stroke:#000000;stroke-width:0.5;stroke-miterlimit:10;}
	.st3{fill:#009FE3;stroke:#000000;stroke-miterlimit:10;}
	.st4{font-family:'MyriadPro-Regular';}
	.st5{font-size:36px;}
	.st6{stroke:#000000;stroke-width:0.5;stroke-miterlimit:10;}
</style>
<rect x="81.8" y="247.9" class="st0" width="444" height="359.1"/>
<rect x="133.1" y="303" class="st1" width="341.4" height="212.1"/>
<rect x="180.3" y="341.3" class="st2" width="107.7" height="73.2"/>
<rect x="225" y="451.8" class="st3" width="52.7" height="36"/>
<rect x="353.5" y="381.2" class="st3" width="80" height="55.7"/>
<polyline class="st3" points="199,414.5 199,431 214.3,414.5 "/>
<polyline class="st3" points="419.7,436.9 419.7,447 410.3,436.9 "/>
<polyline class="st3" points="231.5,487.8 231.5,493.5 237,487.8 "/>
<text transform="matrix(1 0 0 1 115 571)" class="st4 st5">VKCommunityMessenger</text>
<ellipse class="st6" cx="232.8" cy="376.8" rx="1.3" ry="1.1"/>
<ellipse class="st6" cx="246.8" cy="376.9" rx="1.3" ry="1.1"/>
<ellipse class="st6" cx="218.6" cy="377" rx="1.3" ry="1.1"/>
<ellipse class="st6" cx="383.8" cy="408.2" rx="1.3" ry="1.1"/>
<ellipse class="st6" cx="393.8" cy="408.2" rx="1.3" ry="1.1"/>
<ellipse class="st6" cx="403.6" cy="408.2" rx="1.3" ry="1.1"/>
<ellipse class="st6" cx="252.7" cy="470.9" rx="1.3" ry="1.1"/>
<ellipse class="st6" cx="246.1" cy="471" rx="1.3" ry="1.1"/>
<ellipse class="st6" cx="258.3" cy="470.9" rx="1.3" ry="1.1"/>
</svg>
